<svg preserveAspectRatio="none" width="100%" height="100%" overflow="visible" style="display: block;" viewBox="0 0 17.9942 13.1428" fill="none" xmlns="http://www.w3.org/2000/svg">
<g id="SignalStream">
<path id="Vector" d="M14.5436 12.9113C14.2553 12.623 14.2342 12.1625 14.4944 11.8496C17.0467 8.80859 17.0467 4.34023 14.4944 1.29922C14.2342 0.986328 14.2553 0.522266 14.5436 0.233984C14.853 -0.0753906 15.3557 -0.0753906 15.6651 0.233984C15.6827 0.251563 15.6967 0.265625 15.7108 0.283203C18.7553 3.92188 18.7553 9.21992 15.7108 12.8586C15.4296 13.1926 14.9303 13.2383 14.5964 12.957C14.5788 12.943 14.5612 12.9289 14.5436 12.9113Z" fill="var(--fill-0, white)"/>
<path id="Vector_2" d="M3.45059 12.9112C3.14121 13.2206 2.63848 13.2206 2.3291 12.9077C2.31152 12.8901 2.29746 12.8761 2.2834 12.8585C-0.761133 9.21981 -0.761133 3.92176 2.2834 0.28309C2.56465 -0.0508946 3.06387 -0.0965976 3.39785 0.184652C3.41543 0.198715 3.43301 0.216293 3.44707 0.230355C3.73535 0.518637 3.75996 0.979184 3.49629 1.29559C0.947461 4.33661 0.947461 8.80848 3.4998 11.8495C3.75996 12.1624 3.73887 12.6265 3.45059 12.9112Z" fill="var(--fill-0, white)"/>
<path id="Vector_3" d="M12.3206 10.9484C12.0393 10.6672 12.0112 10.2242 12.2503 9.90781C13.769 7.94258 13.769 5.19688 12.2503 3.23164C12.0077 2.91523 12.0358 2.47227 12.3206 2.19102C12.6299 1.88164 13.1327 1.88164 13.4421 2.19102C13.4667 2.21563 13.4878 2.24023 13.5088 2.26484C15.4671 4.79961 15.4671 8.33633 13.5088 10.8711C13.2417 11.2156 12.7424 11.2789 12.3979 11.0117C12.3698 10.9941 12.3452 10.973 12.3206 10.9484Z" fill="var(--fill-0, white)"/>
<path id="Vector_4" d="M5.68037 10.949C5.371 11.2584 4.86826 11.2584 4.55889 10.949C4.53428 10.9244 4.51318 10.8998 4.49209 10.8752C2.53389 8.34043 2.53389 4.80371 4.49209 2.26894C4.75928 1.92441 5.2585 1.86113 5.60303 2.12832C5.62764 2.14941 5.65576 2.1705 5.67686 2.19511C5.95811 2.47636 5.98975 2.92285 5.74717 3.23574C4.22842 5.20097 4.22842 7.94668 5.74717 9.91191C5.98975 10.2248 5.96162 10.6713 5.68037 10.949Z" fill="var(--fill-0, white)"/>
<path id="Vector_5" d="M9.00195 9.12109C10.4096 9.12109 11.5508 7.97994 11.5508 6.57227C11.5508 5.16459 10.4096 4.02344 9.00195 4.02344C7.59427 4.02344 6.45313 5.16459 6.45313 6.57227C6.45313 7.97994 7.59427 9.12109 9.00195 9.12109Z" fill="var(--fill-0, white)"/>
</g>
</svg>
