<svg width="20" height="20" viewBox="0 0 20 20" fill="none" xmlns="http://www.w3.org/2000/svg">
<g clip-path="url(#clip0_0_23)">
<path d="M16.167 17.043C15.8466 16.7227 15.8232 16.2109 16.1123 15.8633C18.9482 12.4844 18.9482 7.51953 16.1123 4.14062C15.8232 3.79297 15.8466 3.27734 16.167 2.95703C16.5107 2.61328 17.0693 2.61328 17.413 2.95703C17.4326 2.97656 17.4482 2.99219 17.4638 3.01172C20.8466 7.05469 20.8466 12.9414 17.4638 16.9844C17.1513 17.3555 16.5966 17.4062 16.2255 17.0938C16.206 17.0781 16.1865 17.0625 16.167 17.043Z" fill="white"/>
<path d="M3.83789 17.0431C3.49414 17.3868 2.93555 17.3868 2.5918 17.0392C2.57227 17.0196 2.55664 17.004 2.54102 16.9845C-0.841797 12.9415 -0.841797 7.05478 2.54102 3.01181C2.85352 2.64072 3.4082 2.58993 3.7793 2.90244C3.79883 2.91806 3.81836 2.93759 3.83398 2.95322C4.1543 3.27353 4.18164 3.78525 3.88867 4.13681C1.05664 7.51572 1.05664 12.4845 3.89258 15.8634C4.18164 16.211 4.1582 16.7267 3.83789 17.0431Z" fill="white"/>
<path d="M13.6943 14.8633C13.3818 14.5508 13.3505 14.0586 13.6162 13.707C15.3037 11.5234 15.3037 8.47266 13.6162 6.28906C13.3466 5.9375 13.3779 5.44531 13.6943 5.13281C14.038 4.78906 14.5966 4.78906 14.9404 5.13281C14.9677 5.16016 14.9912 5.1875 15.0146 5.21484C17.1904 8.03125 17.1904 11.9609 15.0146 14.7773C14.7177 15.1602 14.163 15.2305 13.7802 14.9336C13.749 14.9141 13.7216 14.8906 13.6943 14.8633Z" fill="white"/>
<path d="M6.31152 14.8635C5.96777 15.2072 5.40918 15.2072 5.06543 14.8635C5.03809 14.8362 5.01465 14.8088 4.99121 14.7815C2.81543 11.9651 2.81543 8.03537 4.99121 5.21896C5.28809 4.83615 5.84277 4.76584 6.22559 5.06271C6.25293 5.08615 6.28418 5.10959 6.30762 5.13693C6.62012 5.44943 6.65527 5.94553 6.38574 6.29318C4.69824 8.47678 4.69824 11.5276 6.38574 13.7112C6.65527 14.0588 6.62402 14.5549 6.31152 14.8635Z" fill="white"/>
<path d="M10.0039 12.832C11.568 12.832 12.8359 11.5641 12.8359 10C12.8359 8.43591 11.568 7.16797 10.0039 7.16797C8.43982 7.16797 7.17188 8.43591 7.17188 10C7.17188 11.5641 8.43982 12.832 10.0039 12.832Z" fill="white"/>
</g>
<defs>
<clipPath id="clip0_0_23">
<rect width="20" height="20" fill="white"/>
</clipPath>
</defs>
</svg>
